<?xml version="1.0" encoding="iso-8859-1"?>
<!-- Generator: Adobe Illustrator 18.0.0, SVG Export Plug-In . SVG Version: 6.00 Build 0)  -->
<!DOCTYPE svg PUBLIC "-//W3C//DTD SVG 1.1//EN" "http://www.w3.org/Graphics/SVG/1.1/DTD/svg11.dtd">
<svg version="1.1" id="Capa_1" xmlns="http://www.w3.org/2000/svg" xmlns:xlink="http://www.w3.org/1999/xlink" x="0px" y="0px"
	 viewBox="0 0 479.667 479.667" style="enable-background:new 0 0 479.667 479.667;" xml:space="preserve">
<path d="M474.87,180.079c-2.437-1.931-5.632-2.619-8.647-1.863c-40.447,10.151-73.411,39.497-88.176,78.499l-9.061,23.937
	c-3.01-8.646-6.865-16.898-11.467-24.66l42.639-47.559c31.369-34.988,43.645-83.178,32.835-128.909
	c-0.715-3.025-2.796-5.546-5.632-6.821c-2.836-1.274-6.103-1.158-8.84,0.316c-41.376,22.274-69.268,63.445-74.61,110.131
	l-5.464,47.75c-9.256-9.646-19.912-17.938-31.634-24.554l32.57-51.342c25.172-39.68,29.335-89.234,11.136-132.558
	c-1.204-2.866-3.673-5.009-6.68-5.799c-3.005-0.791-6.209-0.136-8.667,1.769c-37.138,28.791-57.861,73.996-55.435,120.924
	l2.912,56.311c-9.378-3.101-19.2-5.214-29.347-6.211l17.363-54.489c14.268-44.771,5.707-93.757-22.9-131.038
	C245.874,1.446,242.943,0,239.833,0c-3.108,0-6.041,1.446-7.934,3.912c-28.606,37.279-37.168,86.265-22.901,131.038l17.364,54.489
	c-10.147,0.997-19.969,3.111-29.347,6.211l2.912-56.311c2.428-46.927-18.295-92.133-55.434-120.924
	c-2.457-1.905-5.659-2.56-8.667-1.769c-3.007,0.79-5.476,2.933-6.68,5.799c-18.2,43.322-14.037,92.876,11.135,132.558l32.571,51.343
	c-11.722,6.616-22.377,14.907-31.633,24.553l-5.464-47.75c-5.343-46.687-33.234-87.857-74.61-110.131
	c-2.737-1.474-6.006-1.59-8.84-0.316c-2.836,1.274-4.917,3.795-5.632,6.821c-10.81,45.731,1.465,93.921,32.834,128.909l42.64,47.559
	c-4.601,7.762-8.457,16.014-11.467,24.66l-9.062-23.936c-14.764-39.002-47.727-68.347-88.175-78.499
	c-3.017-0.756-6.212-0.068-8.647,1.863s-3.835,4.886-3.786,7.995c0.661,41.697,21.717,80.483,56.325,103.752l45.819,30.807
	c-0.02,0.951-0.036,1.902-0.036,2.857c0,19.482,4.216,38.874,12.221,56.522c-10.602,12.618-16.388,28.398-16.388,45.074
	c0,18.756,7.304,36.389,20.566,49.652c1.953,1.953,4.512,2.929,7.071,2.929s5.118-0.976,7.071-2.929
	c13.263-13.263,20.566-30.896,20.566-49.652c0-17.093-6.083-33.242-17.197-46.011c-0.648-4.719-0.992-9.513-0.992-14.277
	c0-57.233,46.563-103.795,103.796-103.795c57.232,0,103.795,46.563,103.795,103.795c0,4.764-0.344,9.559-0.992,14.278
	c-11.113,12.77-17.196,28.918-17.196,46.01c0,18.756,7.304,36.389,20.566,49.652c1.953,1.953,4.512,2.929,7.071,2.929
	s5.118-0.976,7.071-2.929c13.263-13.263,20.566-30.896,20.566-49.652c0-16.676-5.786-32.457-16.389-45.075
	c8.005-17.646,12.221-37.039,12.221-56.521c0-0.955-0.017-1.906-0.036-2.856l45.821-30.808
	c34.607-23.27,55.663-62.055,56.324-103.752C478.705,184.965,477.306,182.01,474.87,180.079z M415.986,98.011
	c1.41,11.905,1.063,23.857-0.94,35.494l-11.803,0.093l-8.237-17.116C401.239,109.6,408.26,103.388,415.986,98.011z M363.782,185.423
	c2.098-18.337,8.247-35.68,17.688-50.946l6.501,13.507c1.667,3.464,5.171,5.663,9.01,5.663c0.026,0,0.053,0,0.079,0l12.777-0.1
	c-5.313,15.121-13.574,29.271-24.569,41.535l-25.896,28.883L363.782,185.423z M336.792,43.484
	c2.931,10.06,4.536,20.378,4.859,30.703l-12.043,5.417l-8.661-17.174C325.557,55.646,330.85,49.289,336.792,43.484z M309.314,83.781
	l6.742,13.371c1.752,3.476,5.269,5.5,8.935,5.5c1.373,0,2.767-0.284,4.097-0.882l11.207-5.041
	c-2.546,16.688-8.503,32.908-17.799,47.562l-20.78,32.758l-2.004-38.741C298.732,119.371,302.133,100.762,309.314,83.781z
	 M142.874,43.484c5.92,5.783,11.196,12.115,15.794,18.871l-8.699,17.25l-11.956-5.378C138.334,63.889,139.94,53.557,142.874,43.484z
	 M139.378,96.771l11.111,4.998c1.33,0.599,2.724,0.882,4.097,0.882c3.665,0,7.183-2.024,8.935-5.5l6.79-13.466
	c7.209,17.007,10.625,35.65,9.643,54.62l-2.004,38.741l-20.78-32.758C147.882,129.648,141.928,113.444,139.378,96.771z
	 M63.681,98.011c7.701,5.36,14.704,11.55,20.922,18.407l-8.268,17.18l-11.714-0.092C62.618,121.868,62.271,109.916,63.681,98.011z
	 M94.398,195.081c-10.994-12.263-19.256-26.413-24.568-41.534l12.688,0.1c0.026,0,0.052,0,0.079,0c3.839,0,7.343-2.2,9.01-5.663
	l6.54-13.588c9.469,15.285,15.635,32.658,17.737,51.027l4.41,38.542L94.398,195.081z M39.607,210.869l-2.499,11.179l-9.934-0.117
	c-2.28-6.43-3.962-13.096-4.988-19.92C28.284,204.442,34.111,207.413,39.607,210.869z M68.494,275.228
	c-13.035-8.764-23.783-20.144-31.742-33.183l8.229,0.097c0.04,0,0.079,0,0.118,0c4.676,0,8.735-3.245,9.758-7.818l2.189-9.791
	c11.259,10.868,20.171,24.211,25.868,39.261l10.729,28.342L68.494,275.228z M151.766,248.98l-2.877,28.312l-14.911-0.93
	C138.622,266.394,144.629,257.185,151.766,248.98z M172.573,242.057l16.314,11.936c-6.517,2.955-12.73,6.462-18.589,10.455
	L172.573,242.057z M181.974,224.154c12.375-7.093,26.167-11.98,40.835-14.134l-16.439,31.983L181.974,224.154z M297.692,224.154
	l-24.396,17.849l-16.439-31.983C271.526,212.174,285.317,217.061,297.692,224.154z M307.094,242.057l2.275,22.392
	c-5.859-3.993-12.072-7.5-18.589-10.455L307.094,242.057z M327.901,248.981c7.137,8.204,13.143,17.414,17.787,27.381l-14.91,0.93
	L327.901,248.981z M239.833,27.748c4.319,7.2,7.854,14.777,10.601,22.598l-10.6,10.6l-10.602-10.602
	C231.98,42.523,235.515,34.947,239.833,27.748z M223.603,72.999l9.16,9.161c1.875,1.875,4.419,2.929,7.071,2.929
	s5.195-1.054,7.071-2.929l9.158-9.158c2.772,18.466,1.378,37.58-4.453,55.876l-11.777,36.961l-11.778-36.961
	C222.224,110.58,220.83,91.465,223.603,72.999z M126.589,453.743c-4.975-7.913-7.638-17.08-7.638-26.657s2.663-18.744,7.638-26.657
	c4.975,7.913,7.638,17.08,7.638,26.657S131.564,445.83,126.589,453.743z M123.118,325.504c0-0.004,0-0.01,0-0.015
	c0-10.199,1.319-20.095,3.788-29.53l10.988,0.685C131.779,305.504,126.779,315.189,123.118,325.504z M228.046,243.582l11.788-22.932
	l11.788,22.932c-3.883-0.369-7.81-0.58-11.788-0.58S231.928,243.213,228.046,243.582z M341.771,296.645l10.988-0.685
	c2.469,9.435,3.788,19.331,3.788,29.53c0,0.005,0,0.01,0,0.015C352.886,315.189,347.886,305.504,341.771,296.645z M353.077,453.743
	c-4.975-7.913-7.638-17.08-7.638-26.657s2.663-18.744,7.638-26.657c4.975,7.913,7.638,17.08,7.638,26.657
	S358.052,445.83,353.077,453.743z M452.493,221.93l-10.023,0.118l-2.488-11.129c5.519-3.478,11.372-6.466,17.499-8.908
	C456.455,208.835,454.773,215.5,452.493,221.93z M411.172,275.228l-25.149,16.91l10.729-28.343
	c5.685-15.017,14.572-28.335,25.796-39.19l2.173,9.719c1.022,4.574,5.081,7.818,9.758,7.818c0.039,0,0.079,0,0.118,0l8.318-0.098
	C434.955,255.083,424.208,266.463,411.172,275.228z"/>
<g>
</g>
<g>
</g>
<g>
</g>
<g>
</g>
<g>
</g>
<g>
</g>
<g>
</g>
<g>
</g>
<g>
</g>
<g>
</g>
<g>
</g>
<g>
</g>
<g>
</g>
<g>
</g>
<g>
</g>
</svg>
